<?xml version='1.0' encoding='UTF-8'?>
<svg x="0px" y="0px" viewBox="0 0 32 32" version="1.1" xmlns="http://www.w3.org/2000/svg" xmlns:xlink="http://www.w3.org/1999/xlink" xml:space="preserve" id="Layer_1" style="enable-background:new 0 0 32 32">
  <style type="text/css">
	.Yellow{fill:#FFB115;}
	.Red{fill:#D11C1C;}
	.Black{fill:#727272;}
	.Green{fill:#039C23;}
	.Blue{fill:#1177D7;}
</style>
  <g id="Package">
    <path d="M25,8h-3v4h-2V8h-8v4h-2V8H7C6.5,8,6,8.5,6,9v20c0,0.5,0.5,1,1,1h18c0.5,0,1-0.5,1-1V9C26,8.5,25.5,8,25,8z   " class="Yellow" />
    <path d="M16,4c2.2,0,4,1.8,4,4h2c0-3.3-2.7-6-6-6s-6,2.7-6,6h2C12,5.8,13.8,4,16,4z" class="Yellow" />
  </g>
</svg>